<svg width="256" height="256" viewBox="0 0 256 256" fill="none" xmlns="http://www.w3.org/2000/svg">
<rect width="256" height="256" rx="60" fill="#1e1e1e"/>
<path d="M128 64C92.6538 64 64 92.6538 64 128C64 163.346 92.6538 192 128 192C163.346 192 192 163.346 192 128C192 92.6538 163.346 64 128 64ZM128 160C110.327 160 96 145.673 96 128C96 110.327 110.327 96 128 96C145.673 96 160 110.327 160 128C160 145.673 145.673 160 128 160Z" fill="#ffffff"/>
<path d="M150 128L115 105V151L150 128Z" fill="#ffffff"/>
</svg>